<?xml version="1.0" standalone="no"?><!DOCTYPE svg PUBLIC "-//W3C//DTD SVG 1.1//EN" "http://www.w3.org/Graphics/SVG/1.1/DTD/svg11.dtd"><svg t="1591697021629" class="icon" viewBox="0 0 1242 1024" version="1.1" xmlns="http://www.w3.org/2000/svg" p-id="5568" data-spm-anchor-id="a313x.7781069.0.i7" xmlns:xlink="http://www.w3.org/1999/xlink" width="77.625" height="64"><defs><style type="text/css"></style></defs><path d="M1220.974165 443.778397L634.035394 1016.820166a25.167206 25.167206 0 0 1-35.023944 0.17512L14.536864 457.362684a47.119714 47.119714 0 0 1-3.952703-63.793614l2.389134-2.939509a47.107206 47.107206 0 0 1 69.284868-4.102805l524.358486 507.471941a12.508552 12.508552 0 0 0 17.511972 0l529.812216-520.155613c20.238837-19.725986 54.424708-14.810125 71.573932 7.655234a47.107206 47.107206 0 0 1-4.540604 62.280079z" fill="#1114ef" p-id="5569" data-spm-anchor-id="a313x.7781069.0.i8" class="selected"></path><path d="M1228.479296 82.281253L641.540525 655.323023a25.167206 25.167206 0 0 1-35.023944 0.175119L22.041995 95.86554a47.119714 47.119714 0 0 1-3.952703-63.793613l2.389134-2.93951a47.107206 47.107206 0 0 1 69.284868-4.102805l524.358486 507.471942a12.508552 12.508552 0 0 0 17.511972 0L1161.445968 12.345941c20.238837-19.725986 54.424708-14.810125 71.573932 7.655233a47.107206 47.107206 0 0 1-4.540604 62.280079z" fill="#f409e2" p-id="5570" data-spm-anchor-id="a313x.7781069.0.i6" class=""></path></svg>