<?xml version="1.0" standalone="no"?><!DOCTYPE svg PUBLIC "-//W3C//DTD SVG 1.1//EN" "http://www.w3.org/Graphics/SVG/1.1/DTD/svg11.dtd"><svg t="1591778525272" class="icon" viewBox="0 0 1024 1024" version="1.1" xmlns="http://www.w3.org/2000/svg" p-id="2090" width="48" height="48" xmlns:xlink="http://www.w3.org/1999/xlink"><defs><style type="text/css"></style></defs><path d="M142.222222 56.888889h739.555556a85.333333 85.333333 0 0 1 85.333333 85.333333v739.555556a85.333333 85.333333 0 0 1-85.333333 85.333333H142.222222a85.333333 85.333333 0 0 1-85.333333-85.333333V142.222222a85.333333 85.333333 0 0 1 85.333333-85.333333z" fill="#e93adc" p-id="2091" data-spm-anchor-id="a313x.7781069.0.i0" class=""></path><path d="M696.832 585.500444c0.042667 1.507556 0.042667 2.972444 0 4.494223v1.806222c0 1.720889-0.284444 3.399111-0.64 5.034667-0.199111 1.777778-0.170667 3.456-0.483556 5.262222-6.926222 39.082667-39.153778 70.727111-72.021333 70.727111-32.896 0-53.987556-31.644444-47.018667-70.727111 6.869333-39.025778 39.153778-70.727111 72.021334-70.727111 1.408 0 2.631111 0.341333 3.968 0.469333v-170.951111l-204.032 34.033778v228.195555l-0.028445 0.440889c0.156444 5.418667-0.085333 10.979556-1.109333 16.810667C440.590222 679.452444 408.348444 711.111111 375.424 711.111111c-32.853333 0-53.930667-31.658667-47.004444-70.741333 6.940444-39.04 39.168-70.769778 72.064-70.769778 1.393778 0 2.631111 0.369778 3.996444 0.483556V376.305778c0-10.766222 7.793778-19.939556 18.446222-21.717334l248.206222-41.400888A22.087111 22.087111 0 0 1 696.888889 334.904889v250.609778l-0.056889-0.014223z" fill="#2c1ce7" p-id="2092" data-spm-anchor-id="a313x.7781069.0.i1" class="selected"></path></svg>